<?xml version="1.0" encoding="UTF-8" standalone="no"?><!DOCTYPE svg PUBLIC "-//W3C//DTD SVG 1.1//EN" "http://www.w3.org/Graphics/SVG/1.1/DTD/svg11.dtd"><svg width="100%" height="100%" viewBox="0 0 3240 3240" version="1.1" xmlns="http://www.w3.org/2000/svg" xmlns:xlink="http://www.w3.org/1999/xlink" xml:space="preserve" xmlns:serif="http://www.serif.com/" style="fill-rule:evenodd;clip-rule:evenodd;stroke-linejoin:round;stroke-miterlimit:2;"><g id="Layer1"><path d="M2392.33,724.909c5.554,2.3 9.593,7.222 10.766,13.118c1.172,5.896 -0.676,11.989 -4.927,16.239c-20.666,20.667 -52.736,52.737 -67.906,67.907c-5.148,5.148 -12.89,6.688 -19.616,3.902c-89.588,-37.109 -690.645,-286.075 -690.645,-286.075l-763.675,316.325l-316.325,763.675l316.325,763.675l763.675,316.325c-0,0 608.542,-252.066 717.601,-297.24c4.411,-1.827 9.367,-1.827 13.777,-0c4.411,1.827 7.915,5.331 9.742,9.741c9.061,21.875 24.892,60.095 33.953,81.97c1.827,4.411 1.827,9.366 -0,13.777c-1.827,4.41 -5.331,7.915 -9.742,9.741c-113.143,46.866 -765.331,317.011 -765.331,317.011l-859.135,-355.865l-355.865,-859.135l355.865,-859.135l859.135,-355.865c-0,0 637.432,264.033 772.328,319.909Z" style="fill:#a0879c;"/><path d="M2745.59,1770.81c6.012,-0 11.627,3.001 14.967,7.999c3.34,4.999 3.964,11.335 1.663,16.889c-41.65,100.552 -197.722,477.344 -249.258,601.762c-2.786,6.726 -9.349,11.112 -16.63,11.112c-7.28,-0 -13.843,-4.386 -16.629,-11.112c-16.325,-39.412 -39.92,-96.374 -48.017,-115.923c-1.827,-4.411 -1.827,-9.366 -0,-13.777c22.626,-54.623 172.907,-417.436 201.241,-485.839c2.786,-6.726 9.349,-11.111 16.63,-11.111l96.033,-0Zm1.58,-362.848c2.301,5.555 1.677,11.891 -1.663,16.889c-3.34,4.999 -8.955,8 -14.966,8c-29.228,-0 -74.581,-0 -96.034,-0c-7.281,-0 -13.844,-4.386 -16.63,-11.112c-28.363,-68.473 -179.122,-432.438 -207.484,-500.911c-2.786,-6.726 -1.246,-14.468 3.902,-19.616c15.191,-15.192 47.331,-47.331 67.994,-67.995c4.231,-4.231 10.296,-6.071 16.164,-4.903c5.869,1.167 10.768,5.187 13.058,10.716c41.201,99.469 194.371,469.255 235.659,568.932Z" style="fill:#f1cc70;"/></g><g id="Layer3"><path d="M1751.8,1144.61l-179.109,103.409c-8.962,5.174 -20.439,2.099 -25.613,-6.863l-18.75,-32.476c-5.174,-8.962 -2.099,-20.439 6.863,-25.613l278.275,-160.662c6.903,-3.986 15.299,-3.077 21.156,1.649l55.297,22.904c4.092,1.695 7.611,4.192 10.453,7.234c2.013,1.81 3.663,4.086 4.767,6.752l0.054,0.13c0.722,1.417 1.332,2.889 1.823,4.402l121.088,292.332c3.96,9.561 -0.587,20.538 -10.147,24.498l-34.646,14.351c-9.56,3.96 -20.538,-0.587 -24.498,-10.148l-88.492,-213.639l-171.721,414.572l501.184,207.598c15.337,6.353 22.632,23.962 16.279,39.299l-23.021,55.578c-6.353,15.337 -23.963,22.631 -39.3,16.278l-501.184,-207.597l-207.598,501.184c-6.353,15.337 -23.962,22.632 -39.299,16.279l-55.578,-23.021c-15.337,-6.353 -22.631,-23.963 -16.278,-39.3l207.597,-501.184l-501.184,-207.598c-15.337,-6.353 -22.632,-23.962 -16.279,-39.299l23.021,-55.578c6.353,-15.337 23.963,-22.631 39.3,-16.278l501.184,207.597l164.356,-396.79Z" style="fill:#f1cc70;"/></g></svg>